#!OML:ASF H:\Dans Jumps\Project 1\Capture day 1\Session 1\subject.ASF
:FULLY-SPECIFIED
:DEGREES
628
root 0.668051 17.7411 6.73856 6.57301 -1.02485 -1.28366
lowerback -1.97461 -0.0622088 -0.525326
upperback 2.25165 -0.116338 1.67469
thorax 3.42711 -0.0940941 2.01285
lowerneck -10.7366 -0.0436514 -1.72846
upperneck 15.6865 0.299137 -0.313052
head 6.5419 0.0160055 0.210989
rclavicle 2.78299e-015 2.78299e-015
rhumerus -27.3052 -16.0408 -78.4124
rradius 23.4597
rwrist 34.2175
rhand -19.511 -25.5259
rfingers 7.12502
rthumb 6.81187 -55.3963
lclavicle 2.78299e-015 2.78299e-015
lhumerus -23.2545 3.58096 85.8476
lradius 17.4472
lwrist 1.71071
lhand -25.7996 -5.71841
lfingers 7.12502
lthumb 0.739307 24.2601
rfemur -13.0331 -2.46417 19.3954
rtibia 19.8669
rfoot -12.1203 0.250925
rtoes 13.3554
lfemur -12.8085 7.34494 -18.1475
ltibia 17.2209
lfoot -8.9598 3.37224
ltoes 0.95562
629
root 0.668533 17.7413 6.7378 6.5719 -1.05423 -1.28025
lowerback -1.98725 -0.0592505 -0.527218
upperback 2.25402 -0.112366 1.6737
thorax 3.43655 -0.0922279 2.01311
lowerneck -10.7437 -0.0403519 -1.72318
upperneck 15.6392 0.304191 -0.32336
head 6.52801 0.0182523 0.207219
rclavicle 4.12478e-015 2.38542e-015
rhumerus -27.2956 -16.0661 -78.4117
rradius 23.4642
rwrist 34.219
rhand -19.5238 -25.5283
rfingers 7.12502
rthumb 6.79955 -55.3991
lclavicle 4.12478e-015 2.38542e-015
lhumerus -23.2285 3.58569 85.8663
lradius 17.4274
lwrist 1.69461
lhand -25.808 -5.75537
lfingers 7.12502
lthumb 0.731139 24.2231
rfemur -13.0382 -2.46175 19.3887
rtibia 19.8641
rfoot -12.1138 0.274546
rtoes 13.3576
lfemur -12.7996 7.35632 -18.1538
ltibia 17.2102
lfoot -8.95308 3.38723
ltoes 0.970881
630
root 0.669069 17.7415 6.73722 6.56904 -1.07967 -1.2701
lowerback -2.00067 -0.0588053 -0.534912
upperback 2.25693 -0.111501 1.67123
thorax 3.44713 -0.0920476 2.01497
lowerneck -10.7481 -0.0354959 -1.71617
upperneck 15.5926 0.310943 -0.333364
head 6.51388 0.0214436 0.203408
rclavicle -1.78906e-015 9.14409e-015
rhumerus -27.2856 -16.0948 -78.4096
rradius 23.4675
rwrist 34.2304
rhand -19.5276 -25.5292
rfingers 7.12502
rthumb 6.79585 -55.4002
lclavicle -1.78906e-015 9.14409e-015
lhumerus -23.2011 3.59489 85.8836
lradius 17.4036
lwrist 1.67502
lhand -25.8164 -5.78258
lfingers 7.12502
lthumb 0.723081 24.1959
rfemur -13.0418 -2.46897 19.3746
rtibia 19.8653
rfoot -12.1107 0.302976
rtoes 13.3667
lfemur -12.7848 7.36731 -18.1676
ltibia 17.1932
lfoot -8.94619 3.39688
ltoes 0.993264
631
root 0.669475 17.7417 6.73665 6.56615 -1.10445 -1.26345
lowerback -2.01338 -0.0593529 -0.540977
upperback 2.25977 -0.112078 1.67076
thorax 3.45729 -0.0925699 2.0179
lowerneck -10.7484 -0.0320791 -1.71021
upperneck 15.5437 0.316037 -0.34478
head 6.49831 0.0236823 0.19917
rclavicle 1.44119e-015 -3.57812e-015
rhumerus -27.2739 -16.1191 -78.4086
rradius 23.4704
rwrist 34.2394
rhand -19.5299 -25.5276
rfingers 7.12502
rthumb 6.79367 -55.3986
lclavicle 1.44119e-015 -3.57812e-015
lhumerus -23.1719 3.60508 85.9015
lradius 17.3837
lwrist 1.66644
lhand -25.814 -5.77655
lfingers 7.12502
lthumb 0.725352 24.202
rfemur -13.0458 -2.4699 19.3647
rtibia 19.8681
rfoot -12.1083 0.324931
rtoes 13.3697
lfemur -12.7698 7.37725 -18.1767
ltibia 17.1759
lfoot -8.93852 3.40664
ltoes 1.01568
632
root 0.669937 17.7418 6.73644 6.56105 -1.12664 -1.25292
lowerback -2.02906 -0.0616387 -0.549045
upperback 2.26408 -0.114884 1.66897
thorax 3.47074 -0.0942677 2.02049
lowerneck -10.7442 -0.0280319 -1.70706
upperneck 15.4964 0.321808 -0.352762
head 6.48248 0.0263629 0.19655
rclavicle 6.4605e-016 -9.14409e-015
rhumerus -27.2608 -16.1459 -78.4071
rradius 23.4707
rwrist 34.2548
rhand -19.5305 -25.5211
rfingers 7.12502
rthumb 6.79308 -55.3921
lclavicle 6.4605e-016 -9.14409e-015
lhumerus -23.1437 3.61348 85.9195
lradius 17.3683
lwrist 1.66239
lhand -25.8058 -5.74493
lfingers 7.12502
lthumb 0.733349 24.2336
rfemur -13.0464 -2.47785 19.3504
rtibia 19.8724
rfoot -12.1086 0.350736
rtoes 13.3673
lfemur -12.7511 7.38738 -18.1902
ltibia 17.1588
lfoot -8.93348 3.41362
ltoes 1.03446
633
root 0.67028 17.7419 6.73566 6.56064 -1.14808 -1.25254
lowerback -2.03737 -0.0627767 -0.546588
upperback 2.26309 -0.116524 1.66927
thorax 3.47447 -0.0950473 2.01935
lowerneck -10.7453 -0.0254187 -1.71176
upperneck 15.4584 0.326039 -0.353836
head 6.47051 0.0283333 0.197309
rclavicle -1.49089e-016 1.94809e-014
rhumerus -27.2496 -16.1794 -78.4049
rradius 23.4694
rwrist 34.2742
rhand -19.526 -25.515
rfingers 7.12502
rthumb 6.79736 -55.3859
lclavicle -1.49089e-016 1.94809e-014
lhumerus -23.1222 3.61324 85.9377
lradius 17.3577
lwrist 1.6594
lhand -25.7945 -5.71308
lfingers 7.12502
lthumb 0.744255 24.2654
rfemur -13.0539 -2.47424 19.3484
rtibia 19.8759
rfoot -12.1056 0.365077
rtoes 13.3602
lfemur -12.742 7.39251 -18.1921
ltibia 17.1448
lfoot -8.92367 3.42609
ltoes 1.04015
634
root 0.670714 17.7419 6.73513 6.55832 -1.16697 -1.24695
lowerback -2.04714 -0.0650119 -0.546901
upperback 2.26352 -0.119473 1.66723
thorax 3.48056 -0.0965419 2.01729
lowerneck -10.7485 -0.0227082 -1.71476
upperneck 15.4235 0.330107 -0.354498
head 6.45993 0.0303297 0.19791
rclavicle 1.98785e-015 -3.57812e-015
rhumerus -27.236 -16.2174 -78.4036
rradius 23.4649
rwrist 34.2948
rhand -19.527 -25.5124
rfingers 7.12502
rthumb 6.79639 -55.3833
lclavicle 1.98785e-015 -3.57812e-015
lhumerus -23.1019 3.61183 85.9545
lradius 17.3469
lwrist 1.64907
lhand -25.7864 -5.71018
lfingers 7.12502
lthumb 0.752093 24.2682
rfemur -13.058 -2.47541 19.3401
rtibia 19.8792
rfoot -12.1055 0.380748
rtoes 13.3525
lfemur -12.7307 7.39822 -18.2002
ltibia 17.132
lfoot -8.91589 3.43613
ltoes 1.03332
635
root 0.671246 17.742 6.73481 6.55462 -1.18266 -1.24224
lowerback -2.05792 -0.0685175 -0.54404
upperback 2.26456 -0.124229 1.66464
thorax 3.4879 -0.0988595 2.01279
lowerneck -10.7582 -0.017632 -1.70954
upperneck 15.3933 0.337042 -0.36057
head 6.45195 0.033696 0.195685
rclavicle 4.82053e-015 -6.36111e-015
rhumerus -27.2225 -16.2566 -78.4036
rradius 23.459
rwrist 34.3144
rhand -19.5287 -25.5083
rfingers 7.12502
rthumb 6.79479 -55.3793
lclavicle 4.82053e-015 -6.36111e-015
lhumerus -23.0839 3.61785 85.9682
lradius 17.3412
lwrist 1.63682
lhand -25.7808 -5.71824
lfingers 7.12502
lthumb 0.757463 24.2602
rfemur -13.0578 -2.48144 19.3322
rtibia 19.8797
rfoot -12.1052 0.398135
rtoes 13.3421
lfemur -12.7206 7.4036 -18.2077
ltibia 17.1253
lfoot -8.91304 3.44557
ltoes 1.01645
636
root 0.671818 17.742 6.73457 6.55113 -1.19676 -1.23588
lowerback -2.07096 -0.0728122 -0.542325
upperback 2.26662 -0.129998 1.66152
thorax 3.49761 -0.101726 2.00834
lowerneck -10.7821 -0.00958868 -1.6938
upperneck 15.3725 0.347898 -0.374605
head 6.44943 0.0388108 0.189548
rclavicle -7.95139e-016 -4.77083e-015
rhumerus -27.2066 -16.2945 -78.4057
rradius 23.4535
rwrist 34.3316
rhand -19.5267 -25.5117
rfingers 7.12502
rthumb 6.79671 -55.3826
lclavicle -7.95139e-016 -4.77083e-015
lhumerus -23.065 3.62499 85.9814
lradius 17.3363
lwrist 1.62068
lhand -25.7808 -5.74313
lfingers 7.12502
lthumb 0.757481 24.2353
rfemur -13.0555 -2.48935 19.3224
rtibia 19.8768
rfoot -12.104 0.415892
rtoes 13.3377
lfemur -12.7136 7.40888 -18.2174
ltibia 17.1239
lfoot -8.9137 3.45432
ltoes 0.993491
